<svg width="45" height="28" viewBox="0 0 45 28" fill="none" xmlns="http://www.w3.org/2000/svg">
<g filter="url(#filter0_d_664_25)">
<path d="M31.5002 24C30.2006 24 29.4 23.4 28.0918 22.6934C26.7836 21.9867 23 19.1416 23 15.6C23 13.1975 22.3806 11.2543 21.3259 9.70568C20.2791 8.16896 18.8609 7.10428 17.3855 6.35272C16.6746 5.99064 15.9347 5.69452 15.198 5.4498C14.7685 5.30724 14.5193 4.84608 14.7056 4.4338C15.8867 1.81916 18.517 0 21.5724 0C25.7316 0 29.1035 3.37168 29.1035 7.53104C29.1035 8.42088 28.9492 9.2748 28.6658 10.0672C29.8662 9.2582 31.3126 8.78612 32.869 8.78612C37.0282 8.78612 40.3998 12.1578 40.3998 16.3172C40.3998 21.3244 35.9998 24 31.5002 24Z" fill="#8FB2F5"/>
<path d="M4 15.6896C4 19.6593 6.6172 22.967 10.0844 23.6978C10.6195 23.8933 11.1973 24 11.8 24H23.501C23.8934 24 24.0642 23.4752 23.7646 23.2217C21.7197 21.4914 20.2 19.0529 20.2 15.6C20.2 13.7027 19.7195 12.3209 19.0117 11.282C18.2959 10.2312 17.2891 9.44586 16.1146 8.84746C14.9293 8.24374 13.6424 7.85914 12.4135 7.5865C12.124 7.54998 11.8295 7.53102 11.531 7.53102C7.37168 7.53102 4 11.1838 4 15.6896Z" fill="#8FB2F5"/>
</g>
<defs>
<filter id="filter0_d_664_25" x="0" y="0" width="44.3998" height="32" filterUnits="userSpaceOnUse" color-interpolation-filters="sRGB">
<feFlood flood-opacity="0" result="BackgroundImageFix"/>
<feColorMatrix in="SourceAlpha" type="matrix" values="0 0 0 0 0 0 0 0 0 0 0 0 0 0 0 0 0 0 127 0" result="hardAlpha"/>
<feOffset dy="4"/>
<feGaussianBlur stdDeviation="2"/>
<feComposite in2="hardAlpha" operator="out"/>
<feColorMatrix type="matrix" values="0 0 0 0 0 0 0 0 0 0 0 0 0 0 0 0 0 0 0.25 0"/>
<feBlend mode="normal" in2="BackgroundImageFix" result="effect1_dropShadow_664_25"/>
<feBlend mode="normal" in="SourceGraphic" in2="effect1_dropShadow_664_25" result="shape"/>
</filter>
</defs>
</svg>
